<?xml version="1.0" encoding="UTF-8"?>
<svg width="29px" height="29px" viewBox="0 0 29 29" version="1.1" xmlns="http://www.w3.org/2000/svg" xmlns:xlink="http://www.w3.org/1999/xlink">
    <title>矩形</title>
    <g id="r" stroke="none" stroke-width="1" fill="none" fill-rule="evenodd">
        <g id="®备份-6" transform="translate(-649.000000, -293.000000)" fill-rule="nonzero">
            <g id="location-outlined" transform="translate(649.000000, 293.000000)">
                <rect id="矩形" fill="#878888" opacity="0" x="0" y="0" width="29" height="29"></rect>
                <path d="M23.2491935,8.7403079 C22.769086,7.61860883 22.0821237,6.61321497 21.2087366,5.74997191 C20.3353495,4.88672885 19.3215054,4.21215867 18.1901882,3.73918418 C17.0205645,3.24811777 15.7794355,3 14.5,3 C13.2205645,3 11.9794355,3.24811777 10.8098118,3.73659962 C9.67849462,4.20957411 8.66465054,4.88672885 7.79126344,5.74738735 C6.91787634,6.61063041 6.23091398,7.61860883 5.75080645,8.73772334 C5.25282258,9.90077537 5,11.1361951 5,12.4077986 C5,14.232498 5.43158602,16.0494438 6.27943548,17.8017755 C6.96129032,19.2103607 7.91384409,20.5827621 9.1141129,21.8879649 C11.1647849,24.1158557 13.3150538,25.4779189 13.9254032,25.8423418 C14.1016129,25.9483088 14.3008065,26 14.4974462,26 C14.6966398,26 14.8932796,25.9483088 15.0694892,25.8423418 C15.6798387,25.4779189 17.8301075,24.1158557 19.8807796,21.8879649 C21.0810484,20.5853467 22.0336022,19.2103607 22.715457,17.8017755 C23.568414,16.0520283 24,14.2376672 24,12.4103832 C24,11.1387796 23.7471774,9.90335993 23.2491935,8.7403079 Z M14.5,24.0176424 C12.8170699,22.9347118 6.83870968,18.6469266 6.83870968,12.4103832 C6.83870968,10.3970109 7.63293011,8.50511293 9.07580645,7.07843578 C10.5237903,5.64917406 12.449328,4.86088325 14.5,4.86088325 C16.550672,4.86088325 18.4762097,5.64917406 19.9241935,7.08102034 C21.3670699,8.50511293 22.1612903,10.3970109 22.1612903,12.4103832 C22.1612903,18.6469266 16.1829301,22.9347118 14.5,24.0176424 Z M14.5,8.06573772 C12.0177419,8.06573772 10.0053763,10.1023711 10.0053763,12.6145634 C10.0053763,15.1267558 12.0177419,17.1633891 14.5,17.1633891 C16.9822581,17.1633891 18.9946237,15.1267558 18.9946237,12.6145634 C18.9946237,10.1023711 16.9822581,8.06573772 14.5,8.06573772 Z M16.5225806,14.661535 C15.9811828,15.2068772 15.2635753,15.5092707 14.5,15.5092707 C13.7364247,15.5092707 13.0188172,15.2068772 12.4774194,14.661535 C11.9385753,14.1136083 11.6397849,13.3873469 11.6397849,12.6145634 C11.6397849,11.84178 11.9385753,11.1155186 12.4774194,10.5675919 C13.0188172,10.0196651 13.7364247,9.71985616 14.5,9.71985616 C15.2635753,9.71985616 15.9811828,10.0196651 16.5225806,10.5675919 C17.0639785,11.1155186 17.3602151,11.84178 17.3602151,12.6145634 C17.3602151,13.3873469 17.0639785,14.1136083 16.5225806,14.661535 Z" id="形状" fill="#F5F5F5"></path>
            </g>
        </g>
    </g>
</svg>