<?xml version="1.0" encoding="UTF-8"?>
<svg width="29px" height="29px" viewBox="0 0 29 29" version="1.1" xmlns="http://www.w3.org/2000/svg" xmlns:xlink="http://www.w3.org/1999/xlink">
    <title>矩形</title>
    <g id="r" stroke="none" stroke-width="1" fill="none" fill-rule="evenodd">
        <g id="®备份-6" transform="translate(-649.000000, -230.000000)" fill-rule="nonzero">
            <g id="36合作、关系-线性" transform="translate(649.000000, 230.000000)">
                <rect id="矩形" fill="#878888" opacity="0" x="0" y="0" width="29" height="29"></rect>
                <path d="M23.008316,5 C24.1060291,5 25.004158,5.9 25.004158,7 C25.004158,8.1 24.1060291,9 23.008316,9 C21.9106029,9 21.012474,8.1 21.012474,7 C21.012474,5.9 21.9106029,5 23.008316,5 M6.99168399,5 C8.08939709,5 8.98752599,5.9 8.98752599,7 C8.98752599,8.1 8.08939709,9 6.99168399,9 C5.89397089,9 4.995842,8.1 4.995842,7 C4.995842,5.9 5.89397089,5 6.99168399,5 M22.983368,15 C24.0810811,15 24.97921,15.9 24.97921,17 L24.97921,25 L20.987526,25 L20.987526,17 C20.987526,15.9 21.8856549,15 22.983368,15 M7.01663202,15 C8.11434511,15 9.01247401,15.9 9.01247401,17 L9.01247401,25 L5.02079002,25 L5.02079002,17 C5.02079002,15.9 5.91891892,15 7.01663202,15 M23.008316,3 C20.8128898,3 19.016632,4.8 19.016632,7 C19.016632,9.2 20.8128898,11 23.008316,11 C25.2037422,11 27,9.2 27,7 C27,4.8 25.2037422,3 23.008316,3 Z M6.99168399,3 C4.7962578,3 3,4.8 3,7 C3,9.2 4.7962578,11 6.99168399,11 C9.18711019,11 10.983368,9.2 10.983368,7 C10.983368,4.8 9.21205821,3 6.99168399,3 Z M22.983368,13 C20.7879418,13 18.991684,14.8 18.991684,17 L18.991684,18.6 L14.975052,20.925 L11.008316,18.625 L11.008316,17.1 C11.008316,15.15 9.66112266,13.425 7.76507277,13.075 C5.24532225,12.6 3.02494802,14.55 3.02494802,17 L3.02494802,26 C3.02494802,26.55 3.47401247,27 4.02286902,27 L10.010395,27 C10.5592516,27 11.008316,26.55 11.008316,26 L11.008316,20.925 L14.4511435,22.925 C14.4760915,22.925 14.4760915,22.95 14.5010395,22.95 C14.6507277,23.05 14.8253638,23.075 15,23.075 C15.1746362,23.075 15.3243243,23.025 15.4989605,22.95 L18.991684,20.9 L18.991684,26 C18.991684,26.55 19.4407484,27 19.989605,27 L25.977131,27 C26.5259875,27 26.975052,26.55 26.975052,26 L26.975052,17 C26.975052,14.8 25.1787942,13 22.983368,13 Z" id="形状" fill="#F5F5F5"></path>
            </g>
        </g>
    </g>
</svg>