<?xml version="1.0" encoding="UTF-8"?>
<svg width="40px" height="40px" viewBox="0 0 40 40" version="1.1" xmlns="http://www.w3.org/2000/svg" xmlns:xlink="http://www.w3.org/1999/xlink">
    <title>矩形</title>
    <g id="r" stroke="none" stroke-width="1" fill="none" fill-rule="evenodd">
        <g id="®备份-6" transform="translate(-1585.000000, -161.000000)" fill-rule="nonzero">
            <g id="编组" transform="translate(1585.000000, 161.000000)">
                <rect id="矩形" fill="#000000" opacity="0" x="0" y="0" width="40" height="40"></rect>
                <path d="M20,3 C29.3888446,3 37,10.6111554 37,20 C37,29.3888446 29.3888446,37 20,37 C10.6111554,37 3,29.3888446 3,20 C3,10.6111554 10.6111554,3 20,3 Z M25.539455,11.1065085 C24.4645806,10.892642 23.3503407,11.0024006 22.3376765,11.4218312 C21.3250566,11.8412434 20.4595383,12.551587 19.8506124,13.4629799 C19.241699,14.3740773 18.9166617,15.4455469 18.9166617,16.5416653 L18.9166617,24.4583189 L18.9051365,24.6920595 C18.8668551,25.0792613 18.7338881,25.4523955 18.5164175,25.7778886 C18.2554225,26.168407 17.8845104,26.4728078 17.4506198,26.6524992 C17.0165202,26.8322968 16.5390365,26.8793327 16.0784864,26.7876882 C15.6175833,26.6960303 15.1944683,26.4698706 14.8623989,26.137754 C14.5301252,25.8055281 14.3039549,25.3824063 14.2123346,24.9217407 C14.1206566,24.460976 14.1676925,23.9834814 14.3474697,23.549432 C14.5271873,23.1155265 14.8315975,22.7446184 15.2221836,22.483658 C15.6127994,22.2225984 16.0719154,22.0833228 16.5416634,22.0833228 L16.7263134,22.0726706 C17.5137657,21.9812093 18.1249956,21.3119808 18.1249956,20.5 C18.1249956,19.6255427 17.4161136,18.9166614 16.5416634,18.9166614 C15.4455439,18.9166614 14.3740733,19.2416984 13.4627903,19.8507346 C12.5515812,20.4595365 11.8412369,21.325054 11.4218243,22.3376729 C11.0023933,23.3503362 10.8926346,24.464575 11.1065259,25.5395717 C11.3203107,26.6144795 11.8481359,27.6019402 12.623229,28.3769217 C13.3980713,29.1518741 14.3855493,29.6796922 15.4606548,29.8934939 C16.535408,30.1073584 17.6496589,29.9975959 18.6623235,29.5781652 C19.6748504,29.1588373 20.5402904,28.4485867 21.1493434,27.5372803 C21.7583566,26.6257567 22.0833262,25.5543543 22.0833262,24.4583189 L22.0833262,16.5416653 L22.0948509,16.3079464 C22.1331309,15.9207873 22.2660913,15.5477305 22.4835383,15.2223715 C22.7446224,14.8316011 23.1155308,14.5271912 23.5494368,14.3474738 C23.9834865,14.1676968 24.4609816,14.1206609 24.9216233,14.2123143 C25.3824128,14.303959 25.805535,14.5301291 26.1376011,14.8622424 C26.4698781,15.1944716 26.696038,15.6175862 26.7876593,16.0783042 C26.8793407,16.5390385 26.8323047,17.0165217 26.6525303,17.4505643 C26.4728099,17.8844766 26.168362,18.2554578 25.7777109,18.5165409 C25.3873034,18.7773821 24.9281081,18.9166614 24.4583245,18.9166614 L24.2736745,18.9273136 C23.4862221,19.0187749 22.8749923,19.6880034 22.8749923,20.5 C22.8749923,21.3744415 23.5838742,22.0833228 24.4583245,22.0833228 C25.554361,22.0833228 26.6257644,21.7583536 27.5371042,21.1494643 C28.4485417,20.5403249 29.1588038,19.6748441 29.5781757,18.6623235 C29.9976068,17.6496598 30.1073694,16.53541 29.893468,15.4604732 C29.6797028,14.3855533 29.1518842,13.3980763 28.376771,12.6230746 C27.6019488,11.8481423 26.6144871,11.3203177 25.539455,11.1065085 Z" id="形状结合" fill="#F5F5F5"></path>
            </g>
        </g>
    </g>
</svg>