<?xml version="1.0" encoding="UTF-8"?>
<svg width="30px" height="30px" viewBox="0 0 30 30" version="1.1" xmlns="http://www.w3.org/2000/svg" xmlns:xlink="http://www.w3.org/1999/xlink">
    <title>矩形</title>
    <g id="r" stroke="none" stroke-width="1" fill="none" fill-rule="evenodd">
        <g id="®备份-6" transform="translate(-648.000000, -165.000000)" fill-rule="nonzero">
            <g id="notification-outlined" transform="translate(648.000000, 165.000000)">
                <rect id="矩形" fill="#878888" opacity="0" x="0" y="0" width="30" height="30"></rect>
                <path d="M25.78125,3.28125 C25.6699219,3.28125 25.5556641,3.30175781 25.4414063,3.34863281 L8.5546875,10.1337891 L3.75,10.1337891 C3.4921875,10.1337891 3.28125,10.3505859 3.28125,10.6201172 L3.28125,19.3798828 C3.28125,19.6494141 3.4921875,19.8662109 3.75,19.8662109 L6.72949219,19.8662109 C6.62109375,20.2060547 6.5625,20.5664063 6.5625,20.9326172 C6.5625,22.8632813 8.13867188,24.4335938 10.078125,24.4335938 C11.7011719,24.4335938 13.0693359,23.3320313 13.4736328,21.84375 L25.4443359,26.6542969 C25.5585938,26.6982422 25.6728516,26.7216797 25.7841797,26.7216797 C26.2792969,26.7216797 26.7216797,26.3056641 26.7216797,25.7490234 L26.7216797,4.25390625 C26.71875,3.69726563 26.2792969,3.28125 25.78125,3.28125 Z M10.078125,22.3330078 C9.30175781,22.3330078 8.671875,21.7060547 8.671875,20.9326172 C8.671875,20.6044922 8.78613281,20.2910156 8.99414063,20.0419922 L11.4814453,21.0410156 C11.4228516,21.7617188 10.8164063,22.3330078 10.078125,22.3330078 L10.078125,22.3330078 Z M24.609375,24.0439453 L9.33984375,17.9091797 L8.96191406,17.7568359 L5.390625,17.7568359 L5.390625,12.2431641 L8.96191406,12.2431641 L9.33984375,12.0908203 L24.609375,5.95605469 L24.609375,24.0439453 L24.609375,24.0439453 Z" id="形状" fill="#F5F5F5"></path>
            </g>
        </g>
    </g>
</svg>