<?xml version="1.0" encoding="UTF-8"?>
<svg width="40px" height="40px" viewBox="0 0 40 40" version="1.1" xmlns="http://www.w3.org/2000/svg" xmlns:xlink="http://www.w3.org/1999/xlink">
    <title>编组 4</title>
    <defs>
        <polygon id="path-1" points="0 0 34 0 34 30 0 30"></polygon>
    </defs>
    <g id="r" stroke="none" stroke-width="1" fill="none" fill-rule="evenodd">
        <g id="®备份-6" transform="translate(-1328.000000, -161.000000)">
            <g id="编组-5" transform="translate(1328.000000, 161.000000)">
                <g id="编组" transform="translate(3.000000, 5.000000)">
                    <mask id="mask-2" fill="white">
                        <use xlink:href="#path-1"></use>
                    </mask>
                    <g id="Clip-2"></g>
                    <path d="M14.9936528,18.5028487 C14.5074397,19.4475556 13.6627331,21.0014949 12.6426654,22.5157841 C11.0147468,24.9316822 9.88824601,25.8567364 9.24052497,26.20945 C8.94622918,26.3694295 8.58503263,26.2718558 8.40088659,25.9880989 C7.66666759,24.8585881 6.25972424,21.8837959 4.96022757,16.6130902 C3.57423295,10.9917397 3.11099583,5.82102124 3.83372682,4.03849043 C3.94759327,3.75749186 4.27635309,3.64233417 4.53280602,3.7964524 C5.51198994,4.38430831 7.94474501,6.52575875 12.5450173,14.3185559 C13.5806276,16.0731592 14.4726378,17.6050324 14.9936528,18.5028487 M29.0397724,16.6130902 C27.7662927,21.7800161 26.3887452,24.7403274 25.6481064,25.916384 C25.4240902,26.2718558 24.9615289,26.3701191 24.609793,26.1470442 C23.2329212,25.2737075 20.9691075,22.4244165 19.0012789,18.5114683 C19.5212803,17.6150311 20.4159936,16.0790206 21.4549827,14.3185559 C26.0697839,6.50127912 28.5045663,4.37120653 29.4749653,3.79093587 C29.7375001,3.63440415 30.0470006,3.74439009 30.163908,4.03056041 L30.1669489,4.03883522 C30.8890042,5.82102124 30.4257671,10.9917397 29.0397724,16.6130902 M33.4035268,2.67280291 C32.5226668,0.498598024 31.0498363,0.0710664577 30.2490544,0.00969499095 C27.2621718,-0.216827782 23.7437998,3.5140747 18.4542469,12.4746536 C17.9220817,13.3759178 17.4277594,14.2192582 17,14.9508889 C16.5746057,14.2230509 16.0809592,13.3810895 15.5457531,12.4746536 C10.2551866,3.51166121 6.72160982,-0.215448648 3.75060769,0.00969499095 C2.95050158,0.0710664577 1.47767111,0.498598024 0.596473161,2.67280291 C-0.618890728,5.67104041 0.294406072,11.5368424 0.94719535,14.7664297 C1.93279904,19.6433926 3.51983384,24.5003581 4.99063701,27.141055 C5.96880728,28.8970375 6.94663966,29.7927851 8.06773429,29.9596603 C8.24748786,29.9865534 8.43062026,30 8.61206324,30 C11.9236511,30 15.0771098,25.5871157 16.9996621,22.224442 C18.9222144,25.5871157 22.0753353,30 25.3879368,30 C25.5693797,30 25.75285,29.9865534 25.9329415,29.9596603 C27.0533603,29.7927851 28.0311927,28.8970375 29.009363,27.141055 C30.4801662,24.5007028 32.067201,19.6433926 33.0528046,14.7664297 C33.7055939,11.5368424 34.6188907,5.67138519 33.4035268,2.67280291" id="Fill-1" fill="#FFFFFF" mask="url(#mask-2)"></path>
                </g>
            </g>
        </g>
    </g>
</svg>