<svg id="图层_1" data-name="图层 1" xmlns="http://www.w3.org/2000/svg" viewBox="0 0 22 22"><defs><style>.cls-1{fill:#9D2235;}.cls-2{fill:#fff;}.cls-3{fill:none;}</style></defs><circle class="cls-1" cx="11.11" cy="11" r="10.62"/><path class="cls-2" d="M12.41,11.31l4.46,4.25a.69.69,0,0,0,.17-.44V8Z"/><path class="cls-2" d="M5,7.88v7.24a.59.59,0,0,0,.12.35L9.6,11.31Z"/><path class="cls-2" d="M11.6,11.9a1,1,0,0,1-.6.2,1,1,0,0,1-.61-.21l-.19-.14-4.38,4H16l-4.23-4Z"/><path class="cls-2" d="M16.38,6.7H5.61A.63.63,0,0,0,5.05,7l5.77,4.27a.32.32,0,0,0,.36,0L17,7.09A.65.65,0,0,0,16.38,6.7Z"/><rect class="cls-3" x="-413.42" y="-699.67" width="1920" height="970"/></svg>