<?xml version="1.0" encoding="UTF-8"?>
<svg width="40px" height="40px" viewBox="0 0 40 40" version="1.1" xmlns="http://www.w3.org/2000/svg" xmlns:xlink="http://www.w3.org/1999/xlink">
    <title>矩形</title>
    <g id="r" stroke="none" stroke-width="1" fill="none" fill-rule="evenodd">
        <g id="®备份-6" transform="translate(-1264.000000, -167.000000)" fill-rule="nonzero">
            <g id="weibo-filled" transform="translate(1264.000000, 167.000000)">
                <rect id="矩形" fill="#000000" opacity="0" x="0" y="0" width="40" height="40"></rect>
                <path d="M11.0429687,24.1875 C9.8671875,26.578125 11.0039062,29.2304688 13.6914062,30.0976563 C16.4726562,30.9960938 19.7539062,29.6210938 20.8945312,27.0390625 C22.015625,24.515625 20.6132812,21.921875 17.8632812,21.2109375 C15.203125,20.5195312 12.1992187,21.84375 11.0429687,24.1875 Z M13.2617188,28.15625 C12.4023438,27.765625 12.1484375,26.7617188 12.6914063,25.921875 C13.2265625,25.0859375 14.34375,24.7109375 15.2070313,25.0742188 C16.0820313,25.4453125 16.3632813,26.4414063 15.8320313,27.3125 C15.2929688,28.1757813 14.1328125,28.5507813 13.2617188,28.15625 Z M16.6445313,25.3828125 C16.3125,25.2460938 16.2070313,24.8710938 16.3945313,24.5429688 C16.5898438,24.2148438 17.0039063,24.0585938 17.3359375,24.1875 C17.6757813,24.3125 17.796875,24.6914063 17.609375,25.0273438 C17.4140625,25.3632813 16.9804688,25.5234375 16.6445313,25.3828125 Z M32.078125,16.609375 C32.5390625,15.1796875 32.25,13.546875 31.171875,12.3515625 C30.09375,11.15625 28.5,10.6992187 27.03125,11.0117187 C26.4296875,11.140625 26.046875,11.7304687 26.1757813,12.3320312 C26.3046875,12.9296875 26.8945313,13.3164062 27.4960938,13.1835937 C28.2148438,13.03125 28.9921875,13.2539062 29.5234375,13.8359375 C30.0507813,14.421875 30.1953125,15.21875 29.9648438,15.9179687 C29.7734375,16.5078125 30.0898438,17.1328125 30.6757813,17.3242187 C31.2617188,17.5117187 31.8867188,17.1914062 32.078125,16.609375 Z M26.0703125,6.5234375 C25.3710937,6.671875 24.9257812,7.359375 25.078125,8.05859375 C25.2265625,8.7578125 25.9140625,9.203125 26.6132812,9.0546875 C28.7617187,8.59765625 31.0820312,9.265625 32.6601562,11.0117187 C34.234375,12.7578125 34.6601562,15.140625 33.9882812,17.2265625 C33.7695312,17.90625 34.140625,18.6328125 34.8203125,18.8554687 C35.5,19.0742187 36.2265625,18.703125 36.4453125,18.0273437 C37.3867187,15.078125 36.7929687,11.7304687 34.5742187,9.27734375 C32.359375,6.8203125 29.0898437,5.8828125 26.0703125,6.5234375 Z M28.4765625,19.4921875 C28,19.3515625 27.6757812,19.2539062 27.9257812,18.6289062 C28.4648438,17.2734375 28.5195313,16.1015625 27.9375,15.2695312 C26.84375,13.703125 23.84375,13.7890625 20.40625,15.2265625 C20.40625,15.2265625 19.328125,15.6992187 19.6015625,14.84375 C20.1289062,13.1445312 20.0507812,11.7226562 19.2265625,10.8984375 C17.3632812,9.03125 12.40625,10.96875 8.15234375,15.21875 C4.97265625,18.4023438 3.125,21.7773438 3.125,24.6953125 C3.125,30.2773438 10.28125,33.671875 17.2851562,33.671875 C26.4648438,33.671875 32.5703125,28.3398438 32.5703125,24.1015625 C32.5703125,21.5429688 30.4140625,20.09375 28.4765625,19.4921875 Z M17.3046875,31.671875 C11.71875,32.2226562 6.89453125,29.6992187 6.53125,26.0273437 C6.16796875,22.359375 10.40625,18.9375 15.9921875,18.3867187 C21.578125,17.8320312 26.4023437,20.359375 26.765625,24.0273437 C27.125,27.6953125 22.890625,31.1171875 17.3046875,31.671875 Z" id="形状" fill="#F5F5F5"></path>
            </g>
        </g>
    </g>
</svg>