<?xml version="1.0" encoding="UTF-8"?>
<svg width="30px" height="30px" viewBox="0 0 30 30" version="1.1" xmlns="http://www.w3.org/2000/svg" xmlns:xlink="http://www.w3.org/1999/xlink">
    <title>矩形</title>
    <g id="r" stroke="none" stroke-width="1" fill="none" fill-rule="evenodd">
        <g id="®备份-6" transform="translate(-293.000000, -166.000000)" fill-rule="nonzero">
            <g id="phone-outlined" transform="translate(308.000000, 181.000000) scale(-1, 1) translate(-308.000000, -181.000000) translate(293.000000, 166.000000)">
                <rect id="矩形" fill="#878888" opacity="0" x="0" y="0" width="30" height="30"></rect>
                <path d="M25.953101,6.80052493 L22.758087,3.60892388 C22.3680852,3.21897263 21.8460829,3 21.2940805,3 C20.7420781,3 20.2200758,3.215973 19.8300741,3.60892388 L16.3890589,7.04349456 C15.9990572,7.43344582 15.7800562,7.9583802 15.7800562,8.51031121 C15.7800562,9.06524184 15.9960572,9.58417698 16.3890589,9.97712786 L19.0770708,12.6677915 C18.459068,14.1016123 17.5890642,15.3854518 16.4850593,16.4863142 C15.3840545,17.5931759 14.0970488,18.4660667 12.6690426,19.0839895 L9.98103072,16.3933258 C9.59102901,16.0033746 9.06902671,15.7844019 8.51702428,15.7844019 C7.96202184,15.7844019 7.44301955,16.000375 7.05301784,16.3933258 L3.60900268,19.8278965 C3.21900096,20.2178478 3,20.7427822 3,21.2947132 C3,21.8496438 3.21600095,22.3685789 3.60900268,22.7615298 L6.80101673,25.9531309 C7.46701966,26.6190476 8.3850237,27 9.32702785,27 C9.5220287,27 9.71102954,26.9850019 9.90303038,26.952006 C13.8750479,26.2980877 17.8170652,24.1833521 21.0000792,21.0037495 C24.1800932,17.8181477 26.2921025,13.8766404 26.9521054,9.90213723 C27.1411062,8.77427822 26.7631046,7.61342332 25.953101,6.80052493 Z M24.8250961,9.54518185 C24.2400935,13.0817398 22.3380851,16.6092988 19.4730725,19.4739408 C16.6080599,22.3385827 13.0830444,24.240345 9.54602881,24.8252718 C9.10202686,24.9002625 8.64602485,24.7502812 8.32202342,24.4293213 L5.18700963,21.2947132 L8.51102425,17.968129 L12.1050401,21.567679 L12.1320402,21.5946757 L12.780043,21.3547057 C16.7610606,19.887889 19.8870743,16.7622797 21.3510808,12.7817773 L21.5910818,12.1338583 L17.9670659,8.51331084 L21.2910805,5.18672666 L24.4260943,8.32133483 C24.7500957,8.64529434 24.9000964,9.10123735 24.8250961,9.54518185 Z" id="形状" fill="#F5F5F5"></path>
            </g>
        </g>
    </g>
</svg>