<?xml version="1.0" encoding="UTF-8"?>
<svg width="29px" height="29px" viewBox="0 0 29 29" version="1.1" xmlns="http://www.w3.org/2000/svg" xmlns:xlink="http://www.w3.org/1999/xlink">
    <title>形状</title>
    <g id="r" stroke="none" stroke-width="1" fill="none" fill-rule="evenodd">
        <g id="®备份-6" transform="translate(-295.000000, -294.000000)" fill-rule="nonzero">
            <g id="34合作" transform="translate(293.000000, 293.000000)">
                <rect id="矩形" fill="#000000" opacity="0" x="0" y="0" width="32" height="32"></rect>
                <path d="M29.9986811,10.2506513 C30.0342371,8.55100428 29.3497841,6.96393484 28.0756941,5.78324305 C26.8016041,4.60255125 25.0889901,3.96827264 23.2548931,4.00122218 C21.429685,4.03417172 19.705219,4.72062043 18.39261,5.93700756 L16.742219,7.4664153 L15.60739,6.41477587 C14.294781,5.19838874 12.567352,4.51194002 10.7451069,4.47899049 C8.91100991,4.44604095 7.19839589,5.08031956 5.92430588,6.26101136 C4.65021587,7.44170315 3.96576286,9.02877258 4.00131886,10.7284196 C4.03687486,12.4198292 4.77762487,14.0178819 6.09023388,15.234269 L7.24284089,16.3023832 L4.91392287,18.460578 C4.11391286,19.2019426 4.11391286,20.4073465 4.91392287,21.1459653 C5.28133487,21.4864439 5.75837788,21.6704122 6.24134688,21.6978701 C6.27690288,22.1536721 6.48431289,22.5765245 6.83690989,22.9032741 C7.18950689,23.2300236 7.6458089,23.4222293 8.1376669,23.4551788 C8.1732229,23.894506 8.36878091,24.3255958 8.73026691,24.6605828 C9.09175291,24.9955697 9.55694392,25.179538 10.0280609,25.2097417 C10.0665799,25.6435773 10.2621379,26.0691755 10.6206609,26.4014167 C11.0206659,26.772099 11.5451169,26.9560673 12.0695679,26.9560673 C12.594019,26.9560673 13.11847,26.772099 13.518475,26.4014167 L15.93332,24.1635939 L18.36298,26.4151457 C18.783726,26.8050486 19.334844,27 19.888925,27 C20.448932,27 21.011902,26.8023028 21.441537,26.4041625 C21.8326531,26.0417176 22.0578411,25.5694409 22.0815451,25.0614688 C22.6030331,25.0367567 23.1156321,24.8390594 23.5097111,24.4711229 C23.8949011,24.1141696 24.1260151,23.6364013 24.1674971,23.1256834 C24.6889851,23.1009713 25.2015841,22.9032741 25.5986261,22.5353375 C25.9956681,22.167401 26.2208561,21.6813953 26.2386341,21.1624401 C26.7867891,21.1404737 27.2993881,20.9317933 27.6875411,20.5720942 C28.5408851,19.7813053 28.5408851,18.4962733 27.6875411,17.7082302 L26.2060411,16.3353327 L27.9068031,14.7592465 C29.2223751,13.5401136 29.9631251,11.9393151 29.9986811,10.2506513 Z M5.91837988,19.3886566 L9.72583492,15.8603102 C9.84731792,15.7477326 10.0073199,15.6900709 10.1702849,15.6900709 C10.3302869,15.6900709 10.4902889,15.7477326 10.6147349,15.8603102 C10.8606639,16.0882112 10.8606639,16.4561477 10.6147349,16.6813029 L6.80431689,20.2123951 C6.55838789,20.4402961 6.16134588,20.4402961 5.91837988,20.2123951 C5.67245088,19.9844941 5.67245088,19.6165576 5.91837988,19.3886566 Z M7.8413669,21.1459653 L11.6488219,17.6176189 C11.7703049,17.5050413 11.9303069,17.4473797 12.0932719,17.4473797 C12.2532739,17.4473797 12.4132759,17.5050413 12.537722,17.6176189 C12.783651,17.8455199 12.783651,18.2134564 12.537722,18.4386116 L8.72730391,21.966958 C8.48137491,22.194859 8.0843329,22.194859 7.8413669,21.966958 C7.5954379,21.7418028 7.5954379,21.3738663 7.8413669,21.1459653 Z M9.73472392,22.9005283 L13.542179,19.3721819 C13.660699,19.2623501 13.817738,19.2019426 13.986629,19.2019426 C14.15552,19.2019426 14.312559,19.2623501 14.431079,19.3721819 C14.653304,19.5781165 14.674045,19.8966287 14.496265,20.1245296 C14.475524,20.1437502 14.45182,20.1629708 14.431079,20.1821913 L10.6206609,23.7105377 C10.5969569,23.7325041 10.5702899,23.7572163 10.5495489,23.7819284 C10.3036199,23.9494219 9.95694892,23.9302013 9.73768692,23.7242667 C9.49175792,23.4963657 9.49175792,23.1284292 9.73472392,22.9005283 L9.73472392,22.9005283 Z M12.514018,25.4651007 C12.2680889,25.6930016 11.8710469,25.6930016 11.6280809,25.4651007 C11.4058559,25.2591661 11.3851149,24.9406538 11.5628949,24.7127529 C11.5836359,24.6935323 11.6073399,24.6743117 11.6280809,24.6550912 L15.435536,21.1267448 C15.45924,21.1047784 15.485907,21.0800663 15.506648,21.0553541 C15.616279,20.9812176 15.746651,20.9427765 15.877023,20.9427765 C16.037025,20.9427765 16.197027,21.0004382 16.321473,21.1130158 C16.567402,21.3409168 16.567402,21.7088533 16.321473,21.9340085 L12.514018,25.4651007 Z M20.43708,25.4678465 C20.137817,25.742426 19.660774,25.7506633 19.3704,25.4788296 L16.94074,23.2272779 L17.328893,22.8675787 C17.574822,22.6396777 17.746676,22.3650983 17.841492,22.074044 L20.422265,24.4656313 C20.454858,24.4958351 20.487451,24.523293 20.520044,24.550751 C20.61486,24.6688202 20.668194,24.8143473 20.665231,24.965366 C20.662268,25.1548258 20.582267,25.3333025 20.43708,25.4678465 Z M26.6830841,19.6357782 C26.3838211,19.9131034 25.9008521,19.9131034 25.6015891,19.6357782 L25.5838111,19.6522529 L21.459315,15.8301065 L20.454858,16.7609309 L24.5971321,20.5995522 C24.8963951,20.8768774 24.8963951,21.324442 24.5971321,21.6017673 C24.2978691,21.8790926 23.8149001,21.8790926 23.5156371,21.6017673 L19.296325,17.6890096 L18.291868,18.6198341 L19.788183,20.0064605 L19.78522,20.0092063 L22.6741451,22.6863563 C22.7097011,22.7193058 22.7659981,22.8401208 22.7541461,23.0158516 C22.7422941,23.2135489 22.6534041,23.4030087 22.5082171,23.5348069 C22.3630301,23.6693508 22.1733981,23.7434873 21.9689511,23.7434873 C21.8059861,23.7434873 21.6519101,23.6968088 21.521538,23.6089433 C21.500797,23.586977 21.480056,23.5677564 21.456352,23.5457901 L21.447463,23.5540274 C21.441537,23.5485358 21.432648,23.5430443 21.426722,23.5348069 L17.168891,19.5863539 L16.872591,19.8609333 C16.608884,19.7263894 16.321473,19.6495071 16.031099,19.6302866 C15.99258,19.196451 15.797022,18.7708528 15.438499,18.4386116 C15.0909509,18.1156686 14.6287703,17.9205433 14.137742,17.8894526 C14.105149,17.4501254 13.906628,17.0190357 13.545142,16.6840487 C13.174767,16.3408243 12.700687,16.1596019 12.2147549,16.1321439 C12.1791989,15.6928167 11.9836409,15.2617269 11.6221549,14.92674 C10.8221449,14.1853753 9.52138792,14.1853753 8.72434091,14.92674 L8.2502609,15.3660671 L7.09765389,14.2979529 C4.93762687,12.2962685 4.86355187,9.10565484 6.93172589,7.18909002 C9.00286291,5.26977941 12.442906,5.33842428 14.602933,7.34285453 L15.737762,8.39449397 L13.471067,10.495027 L11.1451119,12.5488816 L11.9036399,13.0019378 C11.9510479,13.0293957 13.079951,13.6966239 14.715527,13.9712033 C15.183681,14.0508314 15.648872,14.0892725 16.102211,14.0892725 C17.663712,14.0892725 19.136323,13.627979 20.434117,12.7273583 L20.374857,12.7822742 L26.6860471,18.6308172 C26.9823471,18.9108883 26.9823471,19.3611987 26.6830841,19.6357782 L26.6830841,19.6357782 Z M25.2045471,15.3990167 L21.411907,11.8843992 L22.8726661,10.5307224 L21.8682091,9.59989792 L19.791146,11.5247001 C18.389647,12.5818311 16.783701,12.971734 15.017753,12.6861713 C14.425153,12.5900685 13.909591,12.4308124 13.512549,12.2797937 L14.463672,11.4395805 L19.397067,6.86783202 C20.445969,5.89582064 21.8267271,5.34391587 23.2815601,5.31920372 C24.7245411,5.29449156 26.0697431,5.78873464 27.0712371,6.71406751 C28.0697681,7.63940038 28.6031081,8.88599125 28.5764411,10.2259391 C28.5497741,11.5741244 27.9542111,12.850919 26.9053091,13.8256762 L25.2045471,15.3990167 L25.2045471,15.3990167 Z" id="形状" fill="#FFFFFF"></path>
            </g>
        </g>
    </g>
</svg>