<?xml version="1.0" encoding="UTF-8"?>
<svg width="40px" height="40px" viewBox="0 0 40 40" version="1.1" xmlns="http://www.w3.org/2000/svg" xmlns:xlink="http://www.w3.org/1999/xlink">
    <title>矩形</title>
    <g id="r" stroke="none" stroke-width="1" fill="none" fill-rule="evenodd">
        <g id="®备份-6" transform="translate(-1503.000000, -161.000000)" fill-rule="nonzero">
            <g id="编组" transform="translate(1503.000000, 161.000000)">
                <rect id="矩形" fill="#000000" opacity="0" x="0" y="0" width="40" height="40"></rect>
                <path d="M31.6420462,10.8061434 C28.1045041,10.0557557 25.6388368,6.94689894 25.5851838,3.3556716 L20.1179657,3.3556716 L20.1179657,25.3854277 C20.0107674,27.9046403 17.9203478,29.8878617 15.4011352,29.8343164 C12.8819227,29.7806634 10.8987013,27.6902438 10.8987013,25.1710312 C10.9523543,22.6518186 12.9891209,20.615052 15.5083335,20.615052 C15.9907794,20.615052 16.4195724,20.6685973 16.8483654,20.8294485 L16.8483654,15.2013791 C16.4195724,15.1477261 15.9371265,15.1477261 15.5083335,15.1477261 L15.293937,15.1477261 C9.71952061,15.3085774 5.3242849,19.8646643 5.43148315,25.4390807 C5.53868139,31.0134971 10.0946606,35.4087328 15.6691847,35.3551875 C21.2436011,35.3015345 25.6924898,30.7455553 25.6924898,25.2246842 L25.6924898,14.0221985 C27.9436529,15.6301721 30.5700637,16.4877581 33.3573258,16.4877581 L33.3573258,10.9668869 C32.7141363,10.9668869 32.1781451,10.9133417 31.6420462,10.8061434 Z" id="路径" fill="#F5F5F5"></path>
            </g>
        </g>
    </g>
</svg>