<?xml version="1.0" encoding="UTF-8"?>
<svg width="30px" height="30px" viewBox="0 0 30 30" version="1.1" xmlns="http://www.w3.org/2000/svg" xmlns:xlink="http://www.w3.org/1999/xlink">
    <title>矩形</title>
    <g id="r" stroke="none" stroke-width="1" fill="none" fill-rule="evenodd">
        <g id="®备份-6" transform="translate(-295.000000, -230.000000)" fill-rule="nonzero">
            <g id="team-outlined" transform="translate(295.000000, 230.000000)">
                <rect id="矩形" fill="#878888" opacity="0" x="2" y="2" width="26" height="26"></rect>
                <path d="M25.1463989,21.1069522 C24.3209071,20.2814764 23.3686666,19.6217457 22.3384269,19.1440097 C23.8106622,17.9512947 24.7499028,16.1313481 24.7499028,14.090408 C24.7499028,10.4895136 21.7469327,7.53535022 18.1459686,7.5905986 C14.600254,7.64584698 11.7435325,10.5350122 11.7435325,14.090408 C11.7435325,16.1313481 12.6860231,17.9512947 14.1550084,19.1440097 C13.1247687,19.6217457 12.1757782,20.2782265 11.3470364,21.1069522 C9.5725541,22.88465 8.56506414,25.2310812 8.49999868,27.7335078 C8.49681482,27.8797535 8.61381365,28 8.7600622,28 L10.5800441,28 C10.7197927,28 10.8367915,27.8895032 10.8400415,27.7497573 C10.9017908,25.8648126 11.6655332,24.1001144 13.0077699,22.7611537 C14.4085059,21.3604447 16.2707373,20.5902173 18.2499676,20.5902173 C20.2291979,20.5902173 22.0914293,21.3604447 23.4921654,22.7611537 C24.831152,24.1001144 25.5948944,25.8648126 25.6598937,27.7497573 C25.6631437,27.8895032 25.7801425,28 25.9198912,28 L27.739873,28 C27.8861216,28 28.0031204,27.8797535 27.9999365,27.7335078 C27.9348711,25.2310812 26.9273811,22.88465 25.1463989,21.1069522 Z M18.2499676,18.250286 C17.1384787,18.250286 16.0919891,17.8180486 15.3087469,17.0315717 C14.5125049,16.2353451 14.0770092,15.1758761 14.0900091,14.0481592 C14.099759,12.9821905 14.5255047,11.9519707 15.2697473,11.1882431 C16.0497395,10.3887665 17.0929791,9.94352959 18.207718,9.93052997 C19.309457,9.92078026 20.3786964,10.3497677 21.1651885,11.1199951 C21.9711805,11.9097219 22.4131761,12.9659409 22.4131761,14.090408 C22.4131761,15.2018754 21.9809304,16.2450948 21.1944383,17.0315717 C20.4079461,17.8180486 19.3614565,18.250286 18.2499676,18.250286 L18.2499676,18.250286 Z M10.1087988,14.9483828 C10.079549,14.6656411 10.0632992,14.3796495 10.0632992,14.090408 C10.0632992,13.5736731 10.1120487,13.0699379 10.2030478,12.5792023 C10.2257976,12.4622057 10.1640482,12.3419592 10.0567993,12.2932107 C9.61480368,12.0949665 9.20855773,11.8219745 8.85756123,11.4774846 C8.01906958,10.6585086 7.56732409,9.55029112 7.59982376,8.37707553 C7.62907347,7.33385613 8.04831929,6.3426352 8.779562,5.59515713 C9.582304,4.77293124 10.6612932,4.3244444 11.8085318,4.33744402 C12.8452715,4.34719373 13.8462615,4.746932 14.603504,5.45541123 C14.8602514,5.69590417 15.0812492,5.96239636 15.2664973,6.24838797 C15.3314967,6.34913501 15.4582454,6.39138377 15.5687443,6.35238492 C16.1407386,6.15414073 16.7452326,6.01439483 17.3659764,5.94939674 C17.5479746,5.92989731 17.6519736,5.73490303 17.5707244,5.57240779 C16.5144849,3.48271908 14.3565064,2.03976141 11.8605313,2.00076255 C8.25631722,1.94551417 5.25334715,4.89967752 5.25334715,8.49732201 C5.25334715,10.5382621 6.19258779,12.3582088 7.66482311,13.5509238 C6.63133342,14.0286598 5.67909291,14.6883904 4.85360113,15.5138662 C3.07261889,17.2915641 2.06512893,19.6379953 2.00006347,22.1436718 C1.99687961,22.2899175 2.11387844,22.4101639 2.26012699,22.4101639 L4.08335881,22.4101639 C4.22310742,22.4101639 4.34010625,22.2996672 4.34335622,22.1599213 C4.40510561,20.2749766 5.16884799,18.5102783 6.51108461,17.1713176 C7.46657509,16.2158456 8.63656343,15.5528651 9.9138007,15.2311245 C10.0405494,15.1986255 10.1250486,15.078379 10.1087988,14.9483828 L10.1087988,14.9483828 Z" id="形状" fill="#F5F5F5"></path>
            </g>
        </g>
    </g>
</svg>