<?xml version="1.0" encoding="UTF-8"?>
<svg width="40px" height="40px" viewBox="0 0 40 40" version="1.1" xmlns="http://www.w3.org/2000/svg" xmlns:xlink="http://www.w3.org/1999/xlink">
    <title>矩形</title>
    <g id="r" stroke="none" stroke-width="1" fill="none" fill-rule="evenodd">
        <g id="®备份-6" transform="translate(-1088.000000, -167.000000)" fill-rule="nonzero">
            <g id="wechat-filled" transform="translate(1088.000000, 167.000000)">
                <rect id="矩形" fill="#000000" opacity="0" x="0" y="0" width="40" height="40"></rect>
                <path d="M27.6445312,14.7617188 C26.6914062,9.734375 21.4609375,5.890625 15.1484375,5.890625 C8.1640625,5.890625 2.5,10.6015625 2.5,16.4140625 C2.5,19.5820313 4.203125,22.4375 6.87109375,24.3671875 C7.0859375,24.5195313 7.2265625,24.7695313 7.2265625,25.0546875 C7.2265625,25.1484375 7.20703125,25.234375 7.18359375,25.3242188 C6.96875,26.1171875 6.62890625,27.3867188 6.61328125,27.4453125 C6.5859375,27.546875 6.546875,27.6484375 6.546875,27.7539063 C6.546875,27.984375 6.734375,28.1757812 6.96875,28.1757812 C7.05859375,28.1757812 7.1328125,28.140625 7.2109375,28.0976562 L9.98046875,26.5 C10.1875,26.3789062 10.4101562,26.3046875 10.6523438,26.3046875 C10.7773438,26.3046875 10.9023438,26.3242188 11.0234375,26.359375 C12.3164063,26.7304688 13.7109375,26.9375 15.1523438,26.9375 C15.3867188,26.9375 15.6171875,26.9335937 15.8476563,26.921875 C15.5703125,26.1015625 15.421875,25.2382812 15.421875,24.34375 C15.421875,19.0390625 20.5859375,14.7421875 26.9570313,14.7421875 C27.1875,14.7421875 27.4179687,14.75 27.6445312,14.7617188 Z M19.3671875,11.3632812 C20.296875,11.3632812 21.0546875,12.1171875 21.0546875,13.046875 C21.0546875,13.9765625 20.3007812,14.7304688 19.3671875,14.7304688 C18.4375,14.7304688 17.6796875,13.9765625 17.6796875,13.046875 C17.6796875,12.1171875 18.4375,11.3632812 19.3671875,11.3632812 Z M10.9335938,14.7304688 C10.0039062,14.7304688 9.24609375,13.9765625 9.24609375,13.046875 C9.24609375,12.1171875 10,11.3632812 10.9335938,11.3632812 C11.8671875,11.3632812 12.6210938,12.1171875 12.6210938,13.046875 C12.6210938,13.9765625 11.8632812,14.7304688 10.9335938,14.7304688 Z M33.8554688,30.9648438 C36.078125,29.3554688 37.4960938,26.9804688 37.4960938,24.3359375 C37.4960938,19.4921875 32.7773438,15.5664062 26.953125,15.5664062 C21.1328125,15.5664062 16.4101562,19.4921875 16.4101562,24.3359375 C16.4101562,29.1796875 21.1289062,33.1054688 26.953125,33.1054688 C28.15625,33.1054688 29.3203125,32.9335938 30.3945312,32.625 C30.4960937,32.59375 30.5976562,32.578125 30.703125,32.578125 C30.90625,32.578125 31.0898437,32.640625 31.2617187,32.7382812 L33.5703125,34.0664062 C33.6367188,34.1054688 33.6992187,34.1328125 33.7734375,34.1328125 C33.8671875,34.1328125 33.9570312,34.0976562 34.0234375,34.03125 C34.0898438,33.9648438 34.125,33.875 34.125,33.78125 C34.125,33.6953125 34.0898438,33.609375 34.0703125,33.5234375 C34.0585938,33.4765625 33.7734375,32.4179688 33.59375,31.7539062 C33.5742188,31.6796875 33.5585938,31.6054688 33.5585938,31.53125 C33.5625,31.3007812 33.6796875,31.09375 33.8554688,30.9648438 Z M23.4453125,22.9375 C22.6679688,22.9375 22.0390625,22.3085937 22.0390625,21.5351562 C22.0390625,20.7617188 22.6679688,20.1328125 23.4453125,20.1328125 C24.2226562,20.1328125 24.8515625,20.7617188 24.8515625,21.5351562 C24.8515625,22.3085937 24.21875,22.9375 23.4453125,22.9375 Z M30.4726562,22.9375 C29.6953125,22.9375 29.0664062,22.3085937 29.0664062,21.5351562 C29.0664062,20.7617188 29.6953125,20.1328125 30.4726562,20.1328125 C31.25,20.1328125 31.8789062,20.7617188 31.8789062,21.5351562 C31.875,22.3085937 31.2460938,22.9375 30.4726562,22.9375 Z" id="形状" fill="#F5F5F5"></path>
            </g>
        </g>
    </g>
</svg>